<svg xmlns="http://www.w3.org/2000/svg" width="512" height="512" fill="none" viewBox="0 0 512 512" id="project">
  <path fill="#fff" d="M60.5698 85.7208C120.67 85.5808 180.77 85.4408 240.87 85.3008C246.2 135.481 246.21 186.371 239.14 236.331L237.25 244.891C177.4 241.531 117.35 240.481 57.5398 244.521C48.9198 192.981 48.7098 140.041 56.9298 88.4408L60.5698 85.7208Z"></path>
  <path fill="#fff" d="M203.01 203.17C166.61 208.23 126.52 208.72 90.2002 204.78C86.4002 183.29 84.8602 161.39 85.6202 139.58L87.6302 137.73C92.0702 137.44 96.5202 137.15 100.96 136.87C114.1 136.02 127.23 135.17 140.37 134.32C140.46 135.49 140.54 136.68 140.61 137.89C140.81 141.47 140.93 145.17 141.2 148.65C152.81 148.16 164.47 148.23 176.1 148.11C181.69 148.04 187.28 147.93 192.85 147.7L194.85 148.4C191.34 165.24 193.52 188.83 203.01 203.17Z"></path>
  <path fill="#fff" d="M176.1 148.11C164.47 148.23 152.81 148.16 141.2 148.65C140.93 145.17 140.81 141.47 140.61 137.89C151.24 137.52 163.5 137.12 173.86 136.76C174.36 139.33 175.39 144.51 176.1 148.11Z"></path>
  <path fill="#fff" d="M211.95 123.58C207.03 149.17 204.5 176.88 204.16 203.01 203.78 203.06 203.4 203.12 203.01 203.17 193.52 188.83 191.34 165.24 194.85 148.4L192.85 147.7C187.28 147.93 181.69 148.04 176.1 148.11 175.39 144.51 174.36 139.33 173.86 136.76 163.5 137.12 151.24 137.52 140.61 137.89 140.54 136.68 140.46 135.49 140.37 134.32 127.23 135.17 114.1 136.02 100.96 136.87 102.11 133.14 103.72 128.32 104.54 125.38 140.47 121.62 175.92 120.94 211.95 123.58zM276.98 85.7208C337.08 85.5808 397.18 85.4408 457.28 85.3008 462.61 135.481 462.62 186.371 455.55 236.331L453.66 244.891C393.81 241.531 333.76 240.481 273.95 244.521 265.33 192.981 265.12 140.041 273.34 88.4408L276.98 85.7208z"></path>
  <path fill="#fff" d="M419.42 203.17C383.02 208.23 342.93 208.72 306.61 204.78C302.81 183.29 301.27 161.39 302.03 139.58L304.04 137.73C308.48 137.44 312.93 137.15 317.37 136.87C330.51 136.02 343.64 135.17 356.78 134.32C356.87 135.49 356.95 136.68 357.02 137.89C357.22 141.47 357.34 145.17 357.61 148.65C369.22 148.16 380.88 148.23 392.51 148.11C398.1 148.04 403.69 147.93 409.26 147.7L411.26 148.4C407.75 165.24 409.93 188.83 419.42 203.17Z"></path>
  <path fill="#fff" d="M392.51 148.11C380.88 148.23 369.22 148.16 357.61 148.65C357.34 145.17 357.22 141.47 357.02 137.89C367.65 137.52 379.91 137.12 390.27 136.76C390.77 139.33 391.8 144.51 392.51 148.11Z"></path>
  <path fill="#fff" d="M428.36 123.58C423.44 149.17 420.91 176.88 420.57 203.01 420.19 203.06 419.81 203.12 419.42 203.17 409.93 188.83 407.75 165.24 411.26 148.4L409.26 147.7C403.69 147.93 398.1 148.04 392.51 148.11 391.8 144.51 390.77 139.33 390.27 136.76 379.91 137.12 367.65 137.52 357.02 137.89 356.95 136.68 356.87 135.49 356.78 134.32 343.64 135.17 330.51 136.02 317.37 136.87 318.52 133.14 320.13 128.32 320.95 125.38 356.88 121.62 392.33 120.94 428.36 123.58zM276.98 268.24C337.08 268.1 397.18 267.96 457.28 267.82 462.61 318 462.62 368.89 455.55 418.85L453.66 427.41C393.81 424.05 333.76 423 273.95 427.04 265.33 375.5 265.12 322.56 273.34 270.96L276.98 268.24z"></path>
  <path fill="#fff" d="M419.42 385.68C383.02 390.74 342.93 391.23 306.61 387.29C302.81 365.8 301.27 343.9 302.03 322.09L304.04 320.24C308.48 319.95 312.93 319.66 317.37 319.38C330.51 318.53 343.64 317.68 356.78 316.83C356.87 318 356.95 319.19 357.02 320.4C357.22 323.98 357.34 327.68 357.61 331.16C369.22 330.67 380.88 330.74 392.51 330.62C398.1 330.55 403.69 330.44 409.26 330.21L411.26 330.91C407.75 347.75 409.93 371.34 419.42 385.68Z"></path>
  <path fill="#fff" d="M392.51 330.62C380.88 330.74 369.22 330.67 357.61 331.16C357.34 327.68 357.22 323.98 357.02 320.4C367.65 320.03 379.91 319.63 390.27 319.27C390.77 321.84 391.8 327.02 392.51 330.62Z"></path>
  <path fill="#fff" d="M428.36 306.09C423.44 331.68 420.91 359.39 420.57 385.52 420.19 385.57 419.81 385.63 419.42 385.68 409.93 371.34 407.75 347.75 411.26 330.91L409.26 330.21C403.69 330.44 398.1 330.55 392.51 330.62 391.8 327.02 390.77 321.84 390.27 319.27 379.91 319.63 367.65 320.03 357.02 320.4 356.95 319.19 356.87 318 356.78 316.83 343.64 317.68 330.51 318.53 317.37 319.38 318.52 315.65 320.13 310.83 320.95 307.89 356.88 304.13 392.33 303.45 428.36 306.09zM60.5698 268.24C120.67 268.1 180.77 267.96 240.87 267.82 246.2 318 246.21 368.89 239.14 418.85L237.25 427.41C177.4 424.05 117.35 423 57.5398 427.04 48.9198 375.5 48.7098 322.56 56.9298 270.96L60.5698 268.24z"></path>
  <path fill="#fff" d="M203.01 385.68C166.61 390.74 126.52 391.23 90.2002 387.29C86.4002 365.8 84.8602 343.9 85.6202 322.09L87.6302 320.24C92.0702 319.95 96.5202 319.66 100.96 319.38C114.1 318.53 127.23 317.68 140.37 316.83C140.46 318 140.54 319.19 140.61 320.4C140.81 323.98 140.93 327.68 141.2 331.16C152.81 330.67 164.47 330.74 176.1 330.62C181.69 330.55 187.28 330.44 192.85 330.21L194.85 330.91C191.34 347.75 193.52 371.34 203.01 385.68Z"></path>
  <path fill="#fff" d="M176.1 330.62C164.47 330.74 152.81 330.67 141.2 331.16C140.93 327.68 140.81 323.98 140.61 320.4C151.24 320.03 163.5 319.63 173.86 319.27C174.36 321.84 175.39 327.02 176.1 330.62Z"></path>
  <path fill="#fff" d="M211.95 306.09C207.03 331.68 204.5 359.39 204.16 385.52C203.78 385.57 203.4 385.63 203.01 385.68C193.52 371.34 191.34 347.75 194.85 330.91L192.85 330.21C187.28 330.44 181.69 330.55 176.1 330.62C175.39 327.02 174.36 321.84 173.86 319.27C163.5 319.63 151.24 320.03 140.61 320.4C140.54 319.19 140.46 318 140.37 316.83C127.23 317.68 114.1 318.53 100.96 319.38C102.11 315.65 103.72 310.83 104.54 307.89C140.47 304.13 175.92 303.45 211.95 306.09Z"></path>
  <path fill="#000" d="M54.75 87.8393C51.53 108.159 49.55 128.659 48.9 149.219C48.25 169.739 48.9 190.299 50.85 210.729C51.95 222.239 53.46 233.709 55.36 245.109C55.51 246.019 56.63 246.819 57.53 246.759C80.82 245.189 104.16 244.379 127.5 244.189C150.93 243.999 174.37 244.409 197.78 245.279C210.94 245.769 224.09 246.389 237.23 247.129C240.12 247.289 240.11 242.789 237.23 242.629C213.91 241.319 190.58 240.359 167.23 239.919C143.81 239.469 120.37 239.549 96.95 240.309C83.8 240.739 70.65 241.379 57.52 242.269C58.24 242.819 58.97 243.369 59.69 243.919C56.36 223.949 54.31 203.769 53.52 183.539C52.73 163.349 53.2 143.109 54.93 122.979C55.91 111.619 57.29 100.299 59.08 89.0293C59.27 87.8293 58.77 86.6093 57.51 86.2593C56.45 85.9693 54.94 86.6293 54.75 87.8393Z"></path>
  <path fill="#000" d="M60.5695 87.9706C84.0395 87.9206 107.52 87.8605 130.99 87.8105C154.46 87.7605 177.94 87.7006 201.41 87.6506C214.56 87.6206 227.71 87.5905 240.87 87.5605C240.12 86.8105 239.37 86.0605 238.62 85.3105C240.69 104.811 241.96 124.391 242.32 144.001C242.68 163.601 242.14 183.211 240.59 202.751C239.71 213.781 238.52 224.791 236.97 235.741C236.8 236.941 237.26 238.161 238.54 238.511C239.59 238.801 241.14 238.151 241.31 236.941C244.08 217.331 245.81 197.601 246.53 177.811C247.25 158.051 246.99 138.261 245.85 118.521C245.21 107.431 244.29 96.3605 243.12 85.3105C242.99 84.1005 242.19 83.0605 240.87 83.0605C217.4 83.1105 193.92 83.1706 170.45 83.2206C146.98 83.2706 123.5 83.3305 100.03 83.3805C86.8795 83.4105 73.7295 83.4406 60.5695 83.4706C57.6695 83.4806 57.6695 87.9806 60.5695 87.9706Z"></path>
  <path fill="#000" d="M83.37 139.581C82.79 156.681 83.6 173.811 85.8 190.781C86.44 195.661 87.17 200.531 88.03 205.391C88.21 206.431 89.27 206.941 90.2 207.041C119.74 210.231 149.58 210.691 179.18 208.051C187.5 207.311 195.8 206.311 204.07 205.091C205.27 204.911 205.94 203.391 205.64 202.321C205.29 201.031 204.08 200.571 202.87 200.751C173.85 205.051 144.37 206.191 115.08 204.581C106.77 204.121 98.48 203.441 90.2 202.551C90.92 203.101 91.65 203.651 92.37 204.201C89.46 187.631 87.9 170.831 87.71 154.011C87.65 149.201 87.71 144.401 87.87 139.601C87.97 136.681 83.47 136.681 83.37 139.581Z"></path>
  <path fill="#000" d="M87.6304 139.98C105.21 138.84 122.79 137.7 140.37 136.56C139.62 135.81 138.87 135.06 138.12 134.31C138.49 139.08 138.59 143.87 138.96 148.65C139.05 149.82 139.92 150.95 141.21 150.9C158.42 150.18 175.65 150.67 192.86 149.95C195.75 149.83 195.76 145.33 192.86 145.45C175.65 146.17 158.42 145.68 141.21 146.4C141.96 147.15 142.71 147.9 143.46 148.65C143.09 143.88 142.99 139.09 142.62 134.31C142.53 133.16 141.66 131.98 140.37 132.06C122.79 133.2 105.21 134.34 87.6304 135.48C84.7504 135.67 84.7304 140.17 87.6304 139.98Z"></path>
  <path fill="#000" d="M192.68 147.799C188.95 165.989 191.13 185.009 198.81 201.909 199.31 203.019 200.92 203.289 201.89 202.719 203.03 202.059 203.2 200.749 202.7 199.639 195.55 183.909 193.55 165.919 197.02 148.999 197.6 146.169 193.26 144.959 192.68 147.799zM140.4 140.201C151.55 139.801 162.71 139.401 173.86 139.001 173.14 138.451 172.41 137.901 171.69 137.351 172.31 140.561 172.92 143.771 173.54 146.991 173.77 148.181 175.2 148.871 176.31 148.561 177.56 148.221 178.11 146.991 177.88 145.791 177.26 142.581 176.65 139.371 176.03 136.151 175.85 135.221 174.79 134.471 173.86 134.501 162.71 134.901 151.55 135.301 140.4 135.701 137.51 135.811 137.5 140.311 140.4 140.201z"></path>
  <path fill="#000" d="M103.61 137.18C104.64 133.45 105.67 129.71 106.71 125.98 105.99 126.53 105.26 127.08 104.54 127.63 132.33 124.73 160.3 123.64 188.23 124.56 196.15 124.82 204.06 125.25 211.96 125.82 211.24 124.87 210.51 123.92 209.79 122.97 205.87 143.44 203.41 164.19 202.41 185.02 202.13 190.88 201.97 196.75 201.91 202.62 201.88 205.52 206.38 205.52 206.41 202.62 206.62 182.18 208.13 161.74 211.17 141.52 212.04 135.72 213.03 129.93 214.14 124.17 214.43 122.66 213.51 121.43 211.97 121.32 184.1 119.29 156.11 119.23 128.23 121.09 120.33 121.62 112.43 122.3 104.55 123.12 103.55 123.22 102.66 123.75 102.38 124.77 101.35 128.5 100.32 132.24 99.2799 135.97 98.4999 138.78 102.84 139.97 103.61 137.18zM271.16 87.8393C267.94 108.159 265.96 128.659 265.31 149.219 264.66 169.739 265.31 190.299 267.26 210.729 268.36 222.239 269.87 233.709 271.77 245.109 271.92 246.019 273.04 246.819 273.94 246.759 297.23 245.189 320.57 244.379 343.91 244.189 367.34 243.999 390.78 244.409 414.19 245.279 427.35 245.769 440.5 246.389 453.64 247.129 456.53 247.289 456.52 242.789 453.64 242.629 430.32 241.319 406.99 240.359 383.64 239.919 360.22 239.469 336.78 239.549 313.36 240.309 300.21 240.739 287.06 241.379 273.93 242.269 274.65 242.819 275.38 243.369 276.1 243.919 272.77 223.949 270.72 203.769 269.93 183.539 269.14 163.349 269.61 143.109 271.34 122.979 272.32 111.619 273.7 100.299 275.49 89.0293 275.68 87.8293 275.18 86.6093 273.92 86.2593 272.86 85.9693 271.36 86.6293 271.16 87.8393z"></path>
  <path fill="#000" d="M276.98 87.9706C300.45 87.9206 323.93 87.8605 347.4 87.8105C370.87 87.7605 394.35 87.7006 417.82 87.6506C430.97 87.6206 444.12 87.5905 457.28 87.5605C456.53 86.8105 455.78 86.0605 455.03 85.3105C457.1 104.811 458.37 124.391 458.73 144.001C459.09 163.601 458.55 183.211 457 202.751C456.12 213.781 454.93 224.791 453.38 235.741C453.21 236.941 453.67 238.161 454.95 238.511C456 238.801 457.55 238.151 457.72 236.941C460.49 217.331 462.22 197.601 462.94 177.811C463.66 158.051 463.4 138.261 462.26 118.521C461.62 107.431 460.7 96.3605 459.53 85.3105C459.4 84.1005 458.6 83.0605 457.28 83.0605C433.81 83.1105 410.33 83.1706 386.86 83.2206C363.39 83.2706 339.91 83.3305 316.44 83.3805C303.29 83.4105 290.14 83.4406 276.98 83.4706C274.09 83.4806 274.08 87.9806 276.98 87.9706Z"></path>
  <path fill="#000" d="M299.78 139.581C299.2 156.681 300.01 173.811 302.21 190.781C302.85 195.661 303.58 200.531 304.44 205.391C304.62 206.431 305.68 206.941 306.61 207.041C336.15 210.231 365.99 210.691 395.59 208.051C403.91 207.311 412.21 206.311 420.48 205.091C421.68 204.911 422.35 203.391 422.05 202.321C421.7 201.031 420.49 200.571 419.28 200.751C390.26 205.051 360.78 206.191 331.49 204.581C323.18 204.121 314.89 203.441 306.61 202.551C307.33 203.101 308.06 203.651 308.78 204.201C305.87 187.631 304.31 170.831 304.12 154.011C304.06 149.201 304.12 144.401 304.28 139.601C304.38 136.681 299.88 136.681 299.78 139.581Z"></path>
  <path fill="#000" d="M304.04 139.98C321.62 138.84 339.2 137.7 356.78 136.56C356.03 135.81 355.28 135.06 354.53 134.31C354.9 139.08 355 143.87 355.37 148.65C355.46 149.82 356.33 150.95 357.62 150.9C374.83 150.18 392.06 150.67 409.27 149.95C412.16 149.83 412.17 145.33 409.27 145.45C392.06 146.17 374.83 145.68 357.62 146.4C358.37 147.15 359.12 147.9 359.87 148.65C359.5 143.88 359.4 139.09 359.03 134.31C358.94 133.16 358.07 131.98 356.78 132.06C339.2 133.2 321.62 134.34 304.04 135.48C301.16 135.67 301.14 140.17 304.04 139.98Z"></path>
  <path fill="#000" d="M409.09 147.799C405.36 165.989 407.54 185.009 415.22 201.909 415.72 203.019 417.33 203.289 418.3 202.719 419.44 202.059 419.61 200.749 419.11 199.639 411.96 183.909 409.96 165.919 413.43 148.999 414.01 146.169 409.67 144.959 409.09 147.799zM356.81 140.201C367.96 139.801 379.12 139.401 390.27 139.001 389.55 138.451 388.82 137.901 388.1 137.351 388.72 140.561 389.33 143.771 389.95 146.991 390.18 148.181 391.61 148.871 392.72 148.561 393.97 148.221 394.52 146.991 394.29 145.791 393.67 142.581 393.06 139.371 392.44 136.151 392.26 135.221 391.2 134.471 390.27 134.501 379.12 134.901 367.96 135.301 356.81 135.701 353.92 135.811 353.91 140.311 356.81 140.201z"></path>
  <path fill="#000" d="M320.02 137.18C321.05 133.45 322.08 129.71 323.12 125.98 322.4 126.53 321.67 127.08 320.95 127.63 348.74 124.73 376.71 123.64 404.64 124.56 412.56 124.82 420.47 125.25 428.37 125.82 427.65 124.87 426.92 123.92 426.2 122.97 422.28 143.44 419.82 164.19 418.82 185.02 418.54 190.88 418.38 196.75 418.32 202.62 418.29 205.52 422.79 205.52 422.82 202.62 423.03 182.18 424.54 161.74 427.58 141.52 428.45 135.72 429.44 129.93 430.55 124.17 430.84 122.66 429.92 121.43 428.38 121.32 400.51 119.29 372.52 119.23 344.64 121.09 336.74 121.62 328.84 122.3 320.96 123.12 319.96 123.22 319.07 123.75 318.79 124.77 317.76 128.5 316.73 132.24 315.69 135.97 314.91 138.78 319.25 139.97 320.02 137.18zM54.75 269.65C51.53 289.97 49.55 310.47 48.9 331.03 48.25 351.55 48.9 372.11 50.85 392.54 51.95 404.05 53.46 415.52 55.36 426.92 55.51 427.83 56.63 428.63 57.53 428.57 80.82 427 104.16 426.19 127.5 426 150.93 425.81 174.37 426.22 197.78 427.09 210.94 427.58 224.09 428.2 237.23 428.94 240.12 429.1 240.11 424.6 237.23 424.44 213.91 423.13 190.58 422.17 167.23 421.73 143.81 421.28 120.37 421.36 96.95 422.12 83.8 422.55 70.65 423.19 57.52 424.08 58.24 424.63 58.97 425.18 59.69 425.73 56.36 405.76 54.31 385.58 53.52 365.35 52.73 345.16 53.2 324.92 54.93 304.79 55.91 293.43 57.29 282.11 59.08 270.84 59.27 269.64 58.77 268.42 57.51 268.07 56.45 267.78 54.94 268.44 54.75 269.65z"></path>
  <path fill="#000" d="M60.5695 269.791C84.0395 269.741 107.52 269.681 130.99 269.631C154.46 269.581 177.94 269.521 201.41 269.471C214.56 269.441 227.71 269.411 240.87 269.381C240.12 268.631 239.37 267.881 238.62 267.131C240.69 286.631 241.96 306.211 242.32 325.821C242.68 345.421 242.14 365.031 240.59 384.571C239.71 395.601 238.52 406.611 236.97 417.561C236.8 418.761 237.26 419.981 238.54 420.331C239.59 420.621 241.14 419.971 241.31 418.761C244.08 399.151 245.81 379.421 246.53 359.631C247.25 339.871 246.99 320.081 245.85 300.341C245.21 289.251 244.29 278.181 243.12 267.131C242.99 265.921 242.19 264.881 240.87 264.881C217.4 264.931 193.92 264.991 170.45 265.041C146.98 265.091 123.5 265.151 100.03 265.201C86.8795 265.231 73.7295 265.261 60.5695 265.291C57.6695 265.291 57.6695 269.791 60.5695 269.791Z"></path>
  <path fill="#000" d="M83.37 321.389C82.79 338.489 83.6 355.619 85.8 372.589C86.44 377.469 87.17 382.339 88.03 387.199C88.21 388.239 89.27 388.749 90.2 388.849C119.74 392.039 149.58 392.499 179.18 389.859C187.5 389.119 195.8 388.119 204.07 386.899C205.27 386.719 205.94 385.199 205.64 384.129C205.29 382.839 204.08 382.379 202.87 382.559C173.85 386.859 144.37 387.999 115.08 386.389C106.77 385.929 98.48 385.249 90.2 384.359C90.92 384.909 91.65 385.459 92.37 386.009C89.46 369.439 87.9 352.639 87.71 335.819C87.65 331.009 87.71 326.209 87.87 321.409C87.97 318.489 83.47 318.489 83.37 321.389Z"></path>
  <path fill="#000" d="M87.6304 321.789C105.21 320.649 122.79 319.509 140.37 318.369C139.62 317.619 138.87 316.869 138.12 316.119C138.49 320.889 138.59 325.679 138.96 330.459C139.05 331.629 139.92 332.759 141.21 332.709C158.42 331.989 175.65 332.479 192.86 331.759C195.75 331.639 195.76 327.139 192.86 327.259C175.65 327.979 158.42 327.489 141.21 328.209C141.96 328.959 142.71 329.709 143.46 330.459C143.09 325.689 142.99 320.899 142.62 316.119C142.53 314.969 141.66 313.789 140.37 313.869C122.79 315.009 105.21 316.149 87.6304 317.289C84.7504 317.479 84.7304 321.979 87.6304 321.789Z"></path>
  <path fill="#000" d="M192.68 329.61C188.95 347.8 191.13 366.82 198.81 383.72 199.31 384.83 200.92 385.1 201.89 384.53 203.03 383.86 203.2 382.56 202.7 381.45 195.55 365.72 193.55 347.73 197.02 330.81 197.6 327.98 193.26 326.77 192.68 329.61zM140.4 322.009C151.55 321.609 162.71 321.209 173.86 320.809 173.14 320.259 172.41 319.709 171.69 319.159 172.31 322.369 172.92 325.579 173.54 328.799 173.77 329.989 175.2 330.679 176.31 330.369 177.56 330.029 178.11 328.799 177.88 327.599 177.26 324.389 176.65 321.179 176.03 317.959 175.85 317.029 174.79 316.279 173.86 316.309 162.71 316.709 151.55 317.109 140.4 317.509 137.51 317.619 137.5 322.119 140.4 322.009z"></path>
  <path fill="#000" d="M103.61 318.99C104.64 315.26 105.67 311.52 106.71 307.79 105.99 308.34 105.26 308.89 104.54 309.44 132.33 306.54 160.3 305.45 188.23 306.37 196.15 306.63 204.06 307.06 211.96 307.63 211.24 306.68 210.51 305.73 209.79 304.78 205.87 325.25 203.41 346 202.41 366.83 202.13 372.69 201.97 378.56 201.91 384.43 201.88 387.33 206.38 387.33 206.41 384.43 206.62 363.99 208.13 343.55 211.17 323.33 212.04 317.53 213.03 311.74 214.14 305.98 214.43 304.47 213.51 303.24 211.97 303.13 184.1 301.1 156.11 301.04 128.23 302.9 120.33 303.43 112.43 304.11 104.55 304.93 103.55 305.03 102.66 305.56 102.38 306.58 101.35 310.31 100.32 314.05 99.2799 317.78 98.4999 320.59 102.84 321.78 103.61 318.99zM271.16 269.65C267.94 289.97 265.96 310.47 265.31 331.03 264.66 351.55 265.31 372.11 267.26 392.54 268.36 404.05 269.87 415.52 271.77 426.92 271.92 427.83 273.04 428.63 273.94 428.57 297.23 427 320.57 426.19 343.91 426 367.34 425.81 390.78 426.22 414.19 427.09 427.35 427.58 440.5 428.2 453.64 428.94 456.53 429.1 456.52 424.6 453.64 424.44 430.32 423.13 406.99 422.17 383.64 421.73 360.22 421.28 336.78 421.36 313.36 422.12 300.21 422.55 287.06 423.19 273.93 424.08 274.65 424.63 275.38 425.18 276.1 425.73 272.77 405.76 270.72 385.58 269.93 365.35 269.14 345.16 269.61 324.92 271.34 304.79 272.32 293.43 273.7 282.11 275.49 270.84 275.68 269.64 275.18 268.42 273.92 268.07 272.86 267.78 271.36 268.44 271.16 269.65z"></path>
  <path fill="#000" d="M276.98 269.791C300.45 269.741 323.93 269.681 347.4 269.631C370.87 269.581 394.35 269.521 417.82 269.471C430.97 269.441 444.12 269.411 457.28 269.381C456.53 268.631 455.78 267.881 455.03 267.131C457.1 286.631 458.37 306.211 458.73 325.821C459.09 345.421 458.55 365.031 457 384.571C456.12 395.601 454.93 406.611 453.38 417.561C453.21 418.761 453.67 419.981 454.95 420.331C456 420.621 457.55 419.971 457.72 418.761C460.49 399.151 462.22 379.421 462.94 359.631C463.66 339.871 463.4 320.081 462.26 300.341C461.62 289.251 460.7 278.181 459.53 267.131C459.4 265.921 458.6 264.881 457.28 264.881C433.81 264.931 410.33 264.991 386.86 265.041C363.39 265.091 339.91 265.151 316.44 265.201C303.29 265.231 290.14 265.261 276.98 265.291C274.09 265.291 274.08 269.791 276.98 269.791Z"></path>
  <path fill="#000" d="M299.78 321.389C299.2 338.489 300.01 355.619 302.21 372.589C302.85 377.469 303.58 382.339 304.44 387.199C304.62 388.239 305.68 388.749 306.61 388.849C336.15 392.039 365.99 392.499 395.59 389.859C403.91 389.119 412.21 388.119 420.48 386.899C421.68 386.719 422.35 385.199 422.05 384.129C421.7 382.839 420.49 382.379 419.28 382.559C390.26 386.859 360.78 387.999 331.49 386.389C323.18 385.929 314.89 385.249 306.61 384.359C307.33 384.909 308.06 385.459 308.78 386.009C305.87 369.439 304.31 352.639 304.12 335.819C304.06 331.009 304.12 326.209 304.28 321.409C304.38 318.489 299.88 318.489 299.78 321.389Z"></path>
  <path fill="#000" d="M304.04 321.789C321.62 320.649 339.2 319.509 356.78 318.369C356.03 317.619 355.28 316.869 354.53 316.119C354.9 320.889 355 325.679 355.37 330.459C355.46 331.629 356.33 332.759 357.62 332.709C374.83 331.989 392.06 332.479 409.27 331.759C412.16 331.639 412.17 327.139 409.27 327.259C392.06 327.979 374.83 327.489 357.62 328.209C358.37 328.959 359.12 329.709 359.87 330.459C359.5 325.689 359.4 320.899 359.03 316.119C358.94 314.969 358.07 313.789 356.78 313.869C339.2 315.009 321.62 316.149 304.04 317.289C301.16 317.479 301.14 321.979 304.04 321.789Z"></path>
  <path fill="#000" d="M409.09 329.61C405.36 347.8 407.54 366.82 415.22 383.72 415.72 384.83 417.33 385.1 418.3 384.53 419.44 383.86 419.61 382.56 419.11 381.45 411.96 365.72 409.96 347.73 413.43 330.81 414.01 327.98 409.67 326.77 409.09 329.61zM356.81 322.009C367.96 321.609 379.12 321.209 390.27 320.809 389.55 320.259 388.82 319.709 388.1 319.159 388.72 322.369 389.33 325.579 389.95 328.799 390.18 329.989 391.61 330.679 392.72 330.369 393.97 330.029 394.52 328.799 394.29 327.599 393.67 324.389 393.06 321.179 392.44 317.959 392.26 317.029 391.2 316.279 390.27 316.309 379.12 316.709 367.96 317.109 356.81 317.509 353.92 317.619 353.91 322.119 356.81 322.009z"></path>
  <path fill="#000" d="M320.02 318.99C321.05 315.26 322.08 311.52 323.12 307.79C322.4 308.34 321.67 308.89 320.95 309.44C348.74 306.54 376.71 305.45 404.64 306.37C412.56 306.63 420.47 307.06 428.37 307.63C427.65 306.68 426.92 305.73 426.2 304.78C422.28 325.25 419.82 346 418.82 366.83C418.54 372.69 418.38 378.56 418.32 384.43C418.29 387.33 422.79 387.33 422.82 384.43C423.03 363.99 424.54 343.55 427.58 323.33C428.45 317.53 429.44 311.74 430.55 305.98C430.84 304.47 429.92 303.24 428.38 303.13C400.51 301.1 372.52 301.04 344.64 302.9C336.74 303.43 328.84 304.11 320.96 304.93C319.96 305.03 319.07 305.56 318.79 306.58C317.76 310.31 316.73 314.05 315.69 317.78C314.91 320.59 319.25 321.78 320.02 318.99Z"></path>
</svg>
